PathFileType	4	(X/Y/Z)	C:/Users/Carlo/Dropbox/Carlos/SARAH/CongressoMarcha2025/WorkshopOpenSim/C3D/Caso02/Walking04.c3d.trc
DataRate	CameraRate	NumFrames	NumMarkers	Units	OrigDataRate	OrigDataStartFrame	OrigNumFrames
100.000000	100.000000	2	197	mm	100.000000	160	321
Frame#	Time	LFHD			RFHD			LBHD			RBHD			C7			STRN			LSHO			LUPA			LELB			LFRM			LWRA			LFIN			RSHO			RUPA			RELB			RFRM			RWRA			RWRB			RFIN			RASI			LANK			LHEE			LTOE			RTHI			RKNE			RTIB			RANK			RHEE			RTOE			PELO			PELA			PELL			PELP			LFEO			LFEA			LFEL			LFEP			LTIO			LTIA			LTIL			LTIP			LFOO			LFOA			LFOL			LFOP			RFEO			RFEA			RFEL			RFEP			RTIO			RTIA			RTIL			RTIP			RFOO			RFOA			RFOL			RFOP			LTOO			LTOA			LTOL			LTOP			RTOO			RTOA			RTOL			RTOP			HEDO			HEDA			HEDL			HEDP			LCLO			LCLA			LCLL			LCLP			RCLO			RCLA			RCLL			RCLP			TRXO			TRXA			TRXL			TRXP			LHUO			LHUA			LHUL			LHUP			LRAO			LRAA			LRAL			LRAP			LHNO			LHNA			LHNL			LHNP			RHUO			RHUA			RHUL			RHUP			RRAO			RRAA			RRAL			RRAP			RHNO			RHNA			RHNL			RHNP			LWRB			LTIB			LASI			LTHI			LKNE			RPSI			CLAV			RBAK			LPSI			T10			LHipAngles			LKneeAngles			LAbsAnkleAngle			LAnkleAngles			RHipAngles			RKneeAngles			RAnkleAngles			RAbsAnkleAngle			LPelvisAngles			RPelvisAngles			LFootProgressAngles			RFootProgressAngles			RNeckAngles			LNeckAngles			RSpineAngles			LSpineAngles			LShoulderAngles			LElbowAngles			LWristAngles			RShoulderAngles			RElbowAngles			RWristAngles			RThoraxAngles			LThoraxAngles			RHeadAngles			LHeadAngles			LHipPower			LKneePower			LAnklePower			RHipPower			RKneePower			RAnklePower			LWaistPower			RWaistPower			LNeckPower			RNeckPower			LShoulderPower			RShoulderPower			LElbowPower			RElbowPower			LWristPower			RWristPower			LGroundReactionForce			LNormalisedGRF			RGroundReactionForce			RNormalisedGRF			LAnkleForce			RAnkleForce			RKneeForce			LKneeForce			RHipForce			LHipForce			LWaistForce			RWaistForce			LNeckForce			RNeckForce			LShoulderForce			RShoulderForce			LElbowForce			RElbowForce			LWristForce			RWristForce			LGroundReactionMoment			RGroundReactionMoment			LAnkleMoment			RAnkleMoment			RKneeMoment			LKneeMoment			RHipMoment			LHipMoment			LWaistMoment			RWaistMoment			LNeckMoment			RNeckMoment			LShoulderMoment			RShoulderMoment			LElbowMoment			RElbowMoment			LWristMoment			RWristMoment			CentreOfMass			CentreOfMassFloor			
		X1	Y1	Z1	X2	Y2	Z2	X3	Y3	Z3	X4	Y4	Z4	X5	Y5	Z5	X6	Y6	Z6	X7	Y7	Z7	X8	Y8	Z8	X9	Y9	Z9	X10	Y10	Z10	X11	Y11	Z11	X12	Y12	Z12	X13	Y13	Z13	X14	Y14	Z14	X15	Y15	Z15	X16	Y16	Z16	X17	Y17	Z17	X18	Y18	Z18	X19	Y19	Z19	X20	Y20	Z20	X21	Y21	Z21	X22	Y22	Z22	X23	Y23	Z23	X24	Y24	Z24	X25	Y25	Z25	X26	Y26	Z26	X27	Y27	Z27	X28	Y28	Z28	X29	Y29	Z29	X30	Y30	Z30	X31	Y31	Z31	X32	Y32	Z32	X33	Y33	Z33	X34	Y34	Z34	X35	Y35	Z35	X36	Y36	Z36	X37	Y37	Z37	X38	Y38	Z38	X39	Y39	Z39	X40	Y40	Z40	X41	Y41	Z41	X42	Y42	Z42	X43	Y43	Z43	X44	Y44	Z44	X45	Y45	Z45	X46	Y46	Z46	X47	Y47	Z47	X48	Y48	Z48	X49	Y49	Z49	X50	Y50	Z50	X51	Y51	Z51	X52	Y52	Z52	X53	Y53	Z53	X54	Y54	Z54	X55	Y55	Z55	X56	Y56	Z56	X57	Y57	Z57	X58	Y58	Z58	X59	Y59	Z59	X60	Y60	Z60	X61	Y61	Z61	X62	Y62	Z62	X63	Y63	Z63	X64	Y64	Z64	X65	Y65	Z65	X66	Y66	Z66	X67	Y67	Z67	X68	Y68	Z68	X69	Y69	Z69	X70	Y70	Z70	X71	Y71	Z71	X72	Y72	Z72	X73	Y73	Z73	X74	Y74	Z74	X75	Y75	Z75	X76	Y76	Z76	X77	Y77	Z77	X78	Y78	Z78	X79	Y79	Z79	X80	Y80	Z80	X81	Y81	Z81	X82	Y82	Z82	X83	Y83	Z83	X84	Y84	Z84	X85	Y85	Z85	X86	Y86	Z86	X87	Y87	Z87	X88	Y88	Z88	X89	Y89	Z89	X90	Y90	Z90	X91	Y91	Z91	X92	Y92	Z92	X93	Y93	Z93	X94	Y94	Z94	X95	Y95	Z95	X96	Y96	Z96	X97	Y97	Z97	X98	Y98	Z98	X99	Y99	Z99	X100	Y100	Z100	X101	Y101	Z101	X102	Y102	Z102	X103	Y103	Z103	X104	Y104	Z104	X105	Y105	Z105	X106	Y106	Z106	X107	Y107	Z107	X108	Y108	Z108	X109	Y109	Z109	X110	Y110	Z110	X111	Y111	Z111	X112	Y112	Z112	X113	Y113	Z113	X114	Y114	Z114	X115	Y115	Z115	X116	Y116	Z116	X117	Y117	Z117	X118	Y118	Z118	X119	Y119	Z119	X120	Y120	Z120	X121	Y121	Z121	X122	Y122	Z122	X123	Y123	Z123	X124	Y124	Z124	X125	Y125	Z125	X126	Y126	Z126	X127	Y127	Z127	X128	Y128	Z128	X129	Y129	Z129	X130	Y130	Z130	X131	Y131	Z131	X132	Y132	Z132	X133	Y133	Z133	X134	Y134	Z134	X135	Y135	Z135	X136	Y136	Z136	X137	Y137	Z137	X138	Y138	Z138	X139	Y139	Z139	X140	Y140	Z140	X141	Y141	Z141	X142	Y142	Z142	X143	Y143	Z143	X144	Y144	Z144	X145	Y145	Z145	X146	Y146	Z146	X147	Y147	Z147	X148	Y148	Z148	X149	Y149	Z149	X150	Y150	Z150	X151	Y151	Z151	X152	Y152	Z152	X153	Y153	Z153	X154	Y154	Z154	X155	Y155	Z155	X156	Y156	Z156	X157	Y157	Z157	X158	Y158	Z158	X159	Y159	Z159	X160	Y160	Z160	X161	Y161	Z161	X162	Y162	Z162	X163	Y163	Z163	X164	Y164	Z164	X165	Y165	Z165	X166	Y166	Z166	X167	Y167	Z167	X168	Y168	Z168	X169	Y169	Z169	X170	Y170	Z170	X171	Y171	Z171	X172	Y172	Z172	X173	Y173	Z173	X174	Y174	Z174	X175	Y175	Z175	X176	Y176	Z176	X177	Y177	Z177	X178	Y178	Z178	X179	Y179	Z179	X180	Y180	Z180	X181	Y181	Z181	X182	Y182	Z182	X183	Y183	Z183	X184	Y184	Z184	X185	Y185	Z185	X186	Y186	Z186	X187	Y187	Z187	X188	Y188	Z188	X189	Y189	Z189	X190	Y190	Z190	X191	Y191	Z191	X192	Y192	Z192	X193	Y193	Z193	X194	Y194	Z194	X195	Y195	Z195	X196	Y196	Z196	X197	Y197	Z197	

161	1.6	-473.1103515625002	1722.804565429688	400.7957763671877	-471.414489746094	1725.497314453126	273.0715332031251	-320.4628906250001	1690.289794921876	402.1168518066409	-331.3323669433595	1702.389648437501	260.8281555175782	-289.1350708007814	1519.610473632813	319.9429321289064	-474.3369445800784	1279.275634765625	315.1785888671876	-339.5148925781251	1454.804077148438	528.637634277344	-345.670623779297	1283.676147460938	572.719421386719	-329.9359436035157	1110.598754882813	585.722351074219	-374.4524230957032	989.4035034179692	602.986755371094	-469.5264282226565	881.2473144531255	557.9235839843752	-472.7222595214846	797.6987304687505	607.340026855469	-351.8978881835939	1464.115356445313	105.4835891723633	-317.5487365722657	1252.067993164063	39.49355697631837	-288.6658630371095	1135.413330078125	27.3214683532715	-338.8214416503907	996.8364868164067	14.6011667251587	-355.7424621582032	869.2058715820317	50.21808242797854	-291.5707397460939	874.7980957031255	6.907451629638675	-335.196746826172	792.7443237304692	4.390027523040773	-421.4184265136721	1040.31787109375	204.6136016845704	-328.9949340820314	75.76167297363284	415.2865295410159	-271.8870239257814	38.80635452270509	375.5504150390626	-467.2371215820315	44.99915313720705	374.8244018554689	-485.4772033691409	693.0430297851565	121.1112060546876	-499.7402954101565	540.6257934570315	142.7390899658204	-355.9514160156251	340.2190551757814	144.7394561767579	-249.9299774169923	187.633041381836	168.6876220703126	-187.6250457763672	188.6739044189454	229.1797637939454	-344.5901184082032	80.617301940918	201.3556365966798	-369.8371582031251	937.036743164063	308.6153564453126	-499.6524047851565	939.8991088867192	314.4771423339845	-364.0350646972657	934.3178100585942	438.4363403320315	-366.8556518554689	1066.955932617188	311.203094482422	-369.0701904296876	520.6274414062502	373.6965942382814	-770.8625488281255	523.2312622070315	270.4789428710939	-472.2843017578127	521.508483886719	775.497436523438	-366.329071044922	935.464965820313	373.4910888671876	-326.8662109375001	76.30339050292972	370.3402099609376	-749.4208984375002	36.32194900512697	349.8452758789064	-346.9680786132814	71.18793487548831	794.7702026367192	-367.0467224121095	499.323913574219	373.5356445312501	-458.3821105957034	68.13123321533206	382.5741271972657	-453.0625915527346	252.8780212402345	381.419647216797	-458.1673889160159	69.28001403808597	567.3974609375002	-273.631805419922	62.81048965454104	382.392547607422	-472.3120727539065	527.8182373046877	195.1214294433595	-838.2761230468755	591.4644775390627	402.3078613281252	-279.4840087890626	437.7775878906252	563.3833618164065	-373.3452758789064	938.608520507813	243.7396392822267	-245.6619110107423	192.919158935547	213.1717987060548	-561.2280273437502	-17.66639709472657	268.4732971191407	-209.2989959716798	237.9554748535157	592.165222167969	-460.329772949219	510.1130676269534	196.0757293701173	-346.9766540527345	105.6073684692383	187.6172180175782	-457.5891113281252	260.2904052734376	189.7719421386719	-360.731658935547	93.13481903076175	376.8837890625001	-192.891326904297	215.5355072021486	206.0596160888673	-519.965515136719	69.90479278564456	382.6346740722657	-518.1923828125002	131.4870758056641	382.2498779296876	-519.893981933594	70.2876892089844	444.2424621582034	-458.3820800781252	68.13127136230472	382.574188232422	-398.3384704589846	68.96464538574222	181.4697418212891	-435.2092895507815	120.5256423950196	182.1879882812501	-402.9234924316409	64.8071212768555	244.5586090087892	-346.9766845703126	105.6073760986329	187.6172180175782	-297.919647216797	1621.801513671876	326.7149353027345	-520.722106933594	1664.136962890626	335.0281066894532	-291.776580810547	1609.648315429688	553.247253417969	-255.2153167724611	1844.427612304688	337.5005187988282	-341.4512939453126	1398.84521484375	513.5101318359377	-544.3418579101565	1383.381958007813	596.6812744140627	-334.1124572753907	1610.930419921876	570.8437500000002	-425.7287597656252	1454.539794921875	318.2755126953126	-353.1102905273439	1407.568359375	118.3272094726563	-558.4512329101565	1395.667114257813	46.54588317871095	-357.6640930175782	1195.174682617188	166.5685424804688	-425.7289123535159	1454.539916992188	318.2754516601564	-425.7287292480471	1454.539916992188	318.2754821777345	-644.0854492187502	1440.154296875	319.8782348632814	-427.7211914062502	1460.411743164063	99.52749633789068	-411.3918762207034	1236.25634765625	312.2855834960939	-307.6527709960939	1108.706298828125	548.4111328125002	-16.12545776367188	1144.617919921875	564.6328735351565	-287.393280029297	1075.983520507813	256.7610778808595	-341.4512939453126	1398.845336914063	513.5100708007815	-434.8628540039065	863.8916015625005	567.042419433594	-207.2145233154298	747.796325683594	595.8818359375002	-417.1524047851565	835.2860717773442	312.0882873535157	-316.5574951171876	1091.569458007813	549.7153320312502	-496.4016723632815	714.8972167968752	602.6591796875002	-541.6628417968752	769.250366210938	751.8303833007815	-350.0483398437501	669.0571289062502	663.768005371094	-434.8628540039065	863.8916015625005	567.042419433594	-261.0998535156251	1137.666625976563	60.89655303955081	8.938262939453129	1238.1943359375	21.08677673339844	-317.8865051269532	1178.389770507813	-221.4651184082032	-353.1102294921876	1407.568359375	118.3272171020508	-319.7490234375001	870.4024047851567	34.14594650268556	-74.98936462402347	822.3127441406255	-22.01412582397462	-369.6644287109376	906.1979980468755	-214.0495147705079	-265.2052612304689	1118.9580078125	59.0240173339844	-322.4041137695314	709.8814086914065	15.56563663482667	-413.329040527344	726.7274169921877	-116.9791641235352	-455.9887695312502	701.6055297851565	106.1520385742188	-319.7490539550782	870.402221679688	34.14594650268556	-404.5672912597659	850.179321289063	588.9534912109377	-352.5281066894532	308.4305419921876	446.5923156738284	-411.7462463378909	1035.785278320313	421.0268249511721	-394.9844055175784	753.452087402344	480.4454650878909	-384.1226196289065	520.7559204101565	432.2939758300784	-231.3207244873048	1031.382934570313	230.8146972656251	-432.7134094238284	1454.07958984375	318.3267211914064	-206.9148406982423	1360.939697265625	262.8087463378907	-226.0237731933595	1036.596313476563	369.6797790527345	-219.1887512207032	1263.189086914063	311.257781982422	-1.210060834884644	16.97394943237305	-0.8825826644897465	1.886701703071595	-11.57208442687989	5.509473323822023	0	0	7.075798034667972	1.12626338005066	-2.746705770492555	7.083975791931156	-5.98976516723633	26.57890510559083	11.95216178894043	27.87862205505373	-8.587561607360843	41.33873748779298	3.046243190765383	-13.92271327972413	-1.195158123970032	0	0	-1.160040140151978	-1.140794038772583	-2.585315704345704	-1.314661264419556	1.140794038772583	2.585315704345704	-1.314661264419556	-0.357878088951111	-0.05627825111150744	-91.64962005615237	-0.65226286649704	-5.565056800842287	-54.49502944946292	-1.596927165985108	-0.9273645877838139	-14.56608390808106	1.596927165985108	0.9273645877838139	-14.56608390808106	-0.384429067373276	2.028487920761109	5.074508666992189	0.384429067373276	-2.028487920761109	5.074508666992189	8.411191940307621	3.942108631134035	-2.804969787597657	0	-1.52746142557253e-12	34.07332992553712	7.999716281890873	106.1251678466797	-5.891588211059572	10.10372734069825	10.64013099670411	-14.83728504180909	1.590277359294756e-15	-3.101040745804446e-13	31.37846183776857	-1.389283657073975	112.9553375244141	-11.32614707946778	1.568484902381898	0.4197976589202883	3.757776737213137	-1.568484902381898	-0.4197976589202883	3.757776737213137	2.724062681198121	2.101673126220704	10.85861682891846	-2.724062681198121	-2.101673126220704	10.85861682891846	0	0.09228219091892245	0	0	-0.07086858153343203	0	0	-0.2273729443550111	0	0	0.026130348443985	0	0	0.2062727957963945	0	0	0.0001380503526888788	0	0	-0.1544690430164338	0	0	-0.1544690430164338	0	0	-0.04317846149206163	0	0	-0.04317846149206163	0	0	0.003714928403496744	0	0	-0.02082166448235512	0	0	0.01752346381545068	0	0	0.0111537678167224	0	0	0.0003606297250371427	0	0	0.0005699975881725552	0	0.3035432100296022	7.424731731414798	-0.402021110057831	-4.098074436187746	75.68534088134768	3.094222545623781	nan	nan	nan	nan	nan	nan	0.3523921072483064	0.1339236497879029	7.291684150695804	-0.04157860204577447	0.0590547285974026	-0.01078734267503023	-0.123936302959919	0.2015729099512101	0.01109002251178027	0.4596424698829653	-6.748363018035892	0.9758824110031132	-0.09969940781593328	0.7572886943817143	-0.1568298190832139	0.4382217824459078	-6.033834457397464	0.08289651572704318	0.5157022476196291	-4.391960620880129	-0.4211099743843081	0.5157022476196291	-4.391960620880129	-0.4211099743843081	0.01798255555331708	-1.230353593826294	-0.2273805737495423	0.01798255555331708	-1.230353593826294	-0.2273805737495423	-0.01192563865333796	0.3426259756088258	0.07293467223644259	0.09639908373355871	0.3454538583755494	0.06442224979400638	-0.00300008896738291	0.1485790461301804	-0.07300555706024173	0.04344685375690462	0.1438693851232529	-0.08473016321659091	-0.01495951600372792	0.04475754126906396	0.01080255955457688	0.02197280526161195	0.04512831196188928	0.02160990238189698	89.24755859375003	21.70422744750977	88.28179168701175	nan	nan	nan	502.0906372070315	9.218542098999027	456.2217407226565	-9.473903372872764e-17	0.6879510283470156	0.6857801079750063	61.00651931762698	0.7265186309814455	68.92933654785159	687.5661621093752	77.19941711425784	-22.18471336364747	88.13250732421878	-25.42942237854005	3.635541677474977	849.3480834960942	7.324554443359379	105.6032485961915	373.5700683593751	21.98864555358887	-164.6949920654297	-373.5700683593751	-21.98864555358887	-164.6949920654297	435.8709716796877	-60.63142013549808	171.6182098388672	-435.8709716796877	60.63142013549808	171.6182098388672	5.651376247406008	0.0461045950651169	-2.663819313049317	26.57341194152833	-3.774737358093263	-14.25963592529298	0.2126902043819429	0.1995180547237397	-15.24128437042237	7.435783386230472	0.1136066094040871	-21.89071846008301	1.171899676322937	7.815970051009459e-16	0.562399208545685	1.9709130525589	0	1.793533086776734	-360.349822998047	1016.336181640625	306.8300781250001	-360.349822998047	0	306.8300781250001	
162	1.61	-483.642517089844	1723.814331054688	400.8431091308596	-481.8055114746096	1726.197875976563	273.1104431152345	-331.1085815429689	1690.817138671876	402.448181152344	-341.7300109863282	1702.569458007813	261.139129638672	-300.0519409179689	1520.081298828125	320.7452697753907	-485.2922363281252	1279.841796875	315.8745422363282	-351.1748046875001	1455.718627929688	529.3684082031252	-358.3211364746095	1284.796508789063	574.003601074219	-343.7462463378907	1111.494873046875	587.612731933594	-390.7848205566409	991.0222167968755	604.6520996093752	-488.098327636719	885.0739135742192	559.1209106445315	-493.4148559570315	801.529418945313	608.4042968750002	-361.945770263672	1464.590087890625	106.129005432129	-324.9425354003907	1253.173095703125	40.05129241943361	-295.1394653320314	1136.6708984375	27.85815048217775	-344.5494079589845	997.7439575195317	14.98792934417725	-361.0532836914064	870.131469726563	50.59460449218753	-296.4548950195314	875.7685546875005	8.075079917907718	-339.8964233398439	793.6831054687505	5.201645374298097	-432.9873657226565	1041.065551757813	205.7702026367189	-329.2007751464845	75.91975402832034	415.121765136719	-272.1457519531251	39.13504028320314	375.452606201172	-467.3833618164065	44.85539627075197	374.8146972656251	-501.1718750000002	695.871520996094	121.8675384521485	-517.0471801757815	542.7065429687502	144.3912658691407	-381.129119873047	335.7124328613282	146.6898040771485	-282.2019653320314	178.5622711181641	170.7747039794922	-220.0321197509767	175.9956207275391	232.0593414306642	-382.9846801757814	77.99578857421878	200.9552154541017	-380.6822509765626	937.4996948242192	309.0932006835939	-510.459411621094	940.2583007812505	315.7875976562501	-374.0543212890626	934.3849487304692	438.8657226562502	-377.7675781250001	1067.412109375	312.0624389648439	-372.3005676269532	520.6064453125002	374.0774841308595	-775.3552246093755	516.2424926757815	274.7010192871095	-471.6727600097659	519.6719360351565	777.155883789063	-376.7613220214845	935.7305297851567	373.9401855468751	-327.0894165039064	76.529655456543	370.1754760742189	-749.423034667969	33.71160888671876	349.7554626464845	-347.0293579101564	70.76972198486331	794.6577758789067	-370.1331176757814	499.3175048828127	373.8904418945314	-458.5669860839846	68.00357818603518	382.5791015625001	-453.7259521484377	252.7648010253907	381.6335754394532	-458.1028442382815	68.93726348876956	567.4031982421877	-273.8039550781251	63.16026687622073	382.1395874023439	-489.3931884765627	529.561706542969	196.5709381103517	-853.1132202148442	598.1484375000002	406.612243652344	-294.8667602539064	437.0969238281252	563.6179199218752	-384.6031799316409	939.2687988281255	244.2461700439454	-277.642547607422	183.7549133300782	215.2409667968751	-603.3738403320315	-12.66111755371094	271.5773315429689	-238.6828918457032	228.1251373291017	595.1979980468752	-478.229675292969	511.3308105468752	197.5552520751954	-383.7601318359376	103.0917434692383	187.4275665283204	-484.6809997558596	264.2640075683595	189.6874084472657	-400.9153747558596	89.70071411132815	376.353485107422	-223.4875793457032	203.1457824707032	209.0727844238282	-520.154724121094	69.61801910400393	382.7255859375001	-518.5410156250002	131.2050476074219	382.4104614257814	-520.0000610351565	69.92920684814456	444.3336181640627	-458.5670471191409	68.00355529785159	382.5791015625001	-437.184265136719	69.74041748046878	180.2124786376954	-470.8245544433596	123.4644927978516	180.9657287597657	-442.9027099609377	65.27676391601565	243.1877746582032	-383.7601013183595	103.0917434692383	187.4275665283204	-308.7060546875001	1622.056030273438	327.2684020996095	-531.3789062500002	1665.147583007813	335.1569824218751	-302.9221496582032	1610.466552734376	553.8396606445315	-265.2818908691407	1844.567016601563	337.5416259765626	-353.0723876953126	1399.737060546875	514.3201293945315	-556.2507324218752	1384.455688476563	596.7890625000002	-345.881072998047	1611.897216796876	571.3503417968752	-436.6363525390627	1455.150390625	318.7120971679689	-363.2216796875001	1408.04931640625	118.9944458007813	-568.3623657226565	1396.157958984375	46.39086914062501	-368.0157470703126	1195.598388671875	167.336166381836	-436.6362304687502	1455.150268554688	318.7120971679689	-436.6362915039065	1455.150390625	318.7120971679689	-655.033386230469	1440.808959960938	320.0772399902345	-438.3836059570315	1460.933471679688	99.92375183105474	-422.3364257812502	1236.82568359375	312.8270263671876	-321.6932983398439	1109.255981445313	550.1841430664065	-29.80212402343751	1142.971435546875	567.8728027343752	-300.1302185058595	1075.578979492188	258.5491943359376	-353.0724487304689	1399.737060546875	514.320251464844	-453.8558349609377	866.9298706054692	568.3953247070315	-228.6440734863282	746.3988037109377	598.9656982421877	-435.0107727050784	837.497680664063	313.5203857421876	-330.9446716308595	1092.293212890625	551.458923339844	-518.9499511718752	719.2703247070315	603.4788208007815	-563.7476196289065	774.4370727539067	752.5466918945315	-373.9417724609376	670.0288696289065	665.2796630859377	-453.855895996094	866.9298706054692	568.3952636718752	-267.8987731933595	1139.117919921875	61.68423843383792	1.21368408203125	1242.814697265625	22.69034957885743	-324.3530883789064	1179.340942382813	-220.9641113281251	-363.2216796875001	1408.04931640625	118.9944152832032	-324.9081115722657	871.3858032226567	34.97055435180665	-79.64955139160159	824.712280273438	-20.65781402587891	-374.5261230468751	906.7380371093755	-213.4503936767579	-271.889373779297	1120.376708984375	59.81429290771487	-327.1164855957032	710.900573730469	16.7015781402588	-416.4671936035159	727.3349609375002	-116.866813659668	-461.674011230469	702.621520996094	105.6953125000001	-324.9080810546876	871.3858032226567	34.97054290771486	-423.9570007324221	852.5192871093755	590.4443359375002	-354.2803955078126	308.2935180664064	446.5703125000002	-421.9416503906252	1035.874755859375	422.041687011719	-401.2689208984377	753.220397949219	481.3535461425784	-386.782165527344	520.4702758789065	432.8185729980471	-242.6721343994142	1032.056518554688	230.3579406738282	-443.6211242675784	1454.691650390625	318.7557373046876	-217.8853302001954	1361.314697265625	263.9504394531251	-236.5283813476564	1037.100463867188	369.1760559082032	-230.1344757080079	1263.680297851563	312.0018920898439	-1.423368811607361	16.75859069824219	-1.830536961555482	1.747289896011353	-11.04233646392823	4.923263072967531	0	0	7.315700531005863	1.140864729881287	-2.804189920425416	7.32451152801514	-5.815987586975099	26.59140586853029	12.75509452819825	27.59447860717775	-9.735379219055179	39.22505569458009	3.309564352035524	-14.98498249053956	-0.1977932900190355	0	0	-0.1910669803619386	-1.308963179588318	-2.953008651733399	-1.285239577293396	1.308963179588318	2.953008651733399	-1.285239577293396	-0.2931030094623567	-0.1362603604793549	-91.50158691406253	-0.6852966547012331	-6.535406112670902	-58.02453231811526	-1.476181268692017	-0.9089463353157048	-14.74576377868653	1.476181268692017	0.9089463353157048	-14.74576377868653	-0.1945043951272966	2.461754322052003	5.032712459564211	0.1945043951272966	-2.461754322052003	5.032712459564211	8.559633255004886	4.119509220123293	-2.346811056137086	0	1.496450966614883e-12	34.75974655151369	7.877499580383304	105.9572753906251	-5.741672515869142	10.15098571777344	10.67280864715577	-15.51617622375489	7.95138679647378e-16	-3.116943552219921e-13	31.70296859741212	-1.422248482704163	112.3756561279297	-11.11811828613282	1.540761351585389	0.3574831485748292	3.747443914413454	-1.540761351585389	-0.3574831485748292	3.747443914413454	2.594566822052003	1.994080305099488	11.04276847839356	-2.594566822052003	-1.994080305099488	11.04276847839356	0	-0.09872301667928701	0	0	-0.04137312620878221	0	0	-0.2518986761569978	0	0	-0.1758414059877396	0	0	-0.04845300316810611	0	0	0.02155730314552785	0	0	-0.2078021913766862	0	0	-0.2078021913766862	0	0	-0.0431305691599846	0	0	-0.0431305691599846	0	0	0.006942626088857654	0	0	-0.02076192200183869	0	0	0.01823769882321358	0	0	0.01228724326938391	0	0	0.0003400161804165692	0	0	0.0008442118996754293	0	0.2703334689140321	7.380391120910648	-0.412288695573807	-4.202738761901857	75.23334503173831	2.755692958831788	nan	nan	nan	nan	nan	nan	0.3760871291160586	0.1641750782728196	7.274001121521	-0.03031193651258947	-0.08681429922580722	-0.1694273352622986	0.1300515979528428	0.3435708582401277	-0.3721627891063691	0.4839109480381014	-6.730312347412113	1.124942779541016	0.2746860086917878	1.199491858482361	-0.2457665205001832	0.4759661257267001	-6.019272327423099	0.3449772894382478	0.74807345867157	-4.055960655212404	-0.5411798954010012	0.74807345867157	-4.055960655212404	-0.5411798954010012	0.2355369478464128	-0.9708531498909001	-0.3270586133003236	0.2355369478464128	-0.9708531498909001	-0.3270586133003236	-0.02692136913537981	0.3412033021450044	0.06759435683488849	0.09110552072525027	0.3470982909202577	0.05905832722783091	-0.02115482836961747	0.149246096611023	-0.07247319817543033	0.04124761000275613	0.1431952863931656	-0.08584570884704593	-0.01716887950897217	0.0468849949538708	0.01416919380426408	0.01975331641733647	0.0439240224659443	0.02117290347814561	86.36385345458987	18.06778717041016	51.30915069580081	nan	nan	nan	497.3665466308596	14.10181903839112	492.0944824218752	-7.579122698298211e-16	-1.097159147262574	-15.23266983032227	7.697100162506107	-1.988227486610413	-14.2023458480835	689.5210571289065	83.96779632568362	-14.17981815338135	-109.4911193847657	-10.13357925415039	110.5827178955079	874.265991210938	21.33725547790528	-5.768113613128664	514.6890258789065	63.38106155395511	-73.72744750976565	-514.6890258789065	-63.38106155395511	-73.72744750976565	676.9897460937502	-59.13309097290042	293.3961791992189	-676.9897460937502	59.13309097290042	293.3961791992189	12.7015199661255	-1.62517809867859	-3.76708245277405	25.26348686218263	-3.846122264862062	-14.50835800170899	3.194185972213747	0.2385053038597108	-15.35212135314942	7.532809734344486	0.1322166621685029	-20.86160850524903	1.2704097032547	9.947598342993054e-16	0.7995213270187382	1.692049026489259	3.315866114331018e-16	1.742351412773133	-371.5637512207032	1016.712890625	307.5267944335939	-371.5637512207032	0	307.5267944335939	
